<mxfile host="app.diagrams.net" modified="2024-05-22T09:09:33.151Z" agent="Mozilla/5.0 (Windows NT 10.0; Win64; x64) AppleWebKit/537.36 (KHTML, like Gecko) Chrome/124.0.0.0 Safari/537.36" version="24.4.4" etag="aEIYsv51tFn7KTni_8Gg" type="github">
  <diagram name="第 1 页" id="EnPjAqI8XY5VulzZ_zmV">
    <mxGraphModel>
      <root>
        <mxCell id="0" />
        <mxCell id="1" parent="0" />
      </root>
    </mxGraphModel>
  </diagram>
</mxfile>
